<svg xmlns="http://www.w3.org/2000/svg" xmlns:xlink="http://www.w3.org/1999/xlink" width="800" zoomAndPan="magnify" viewBox="0 0 600 449.999984" height="600" preserveAspectRatio="xMidYMid meet" version="1.0"><defs><clipPath id="id1"><path d="M 163 228.5625 L 434.699219 228.5625 L 434.699219 384.261719 L 163 384.261719 Z M 163 228.5625 " clip-rule="nonzero"/></clipPath><clipPath id="id2"><path d="M 103.074219 372 L 494.902344 372 L 494.902344 384.261719 L 103.074219 384.261719 Z M 103.074219 372 " clip-rule="nonzero"/></clipPath><clipPath id="id3"><path d="M 195.546875 349 L 402.8125 349 L 402.8125 384.261719 L 195.546875 384.261719 Z M 195.546875 349 " clip-rule="nonzero"/></clipPath></defs><path fill="#b3614b" d="M 239.507812 142.488281 C 237.433594 139.738281 236.96875 135.285156 236.609375 131.988281 C 235.449219 121.46875 235.570312 113.140625 236.5625 110.769531 C 237.164062 109.347656 240.203125 102.359375 247.375 95.441406 C 258.960938 84.246094 278.046875 78.390625 287.765625 76.367188 C 295.628906 74.738281 303.941406 73.914062 312.070312 74.476562 C 316.59375 74.792969 321.339844 75.367188 325.742188 76.484375 C 329.363281 77.398438 332.949219 79.132812 335.121094 82.164062 C 337.464844 85.429688 338.03125 89.558594 340.835938 92.546875 C 343.894531 95.816406 348.066406 97.769531 351.199219 100.953125 C 355.382812 105.222656 359.550781 111.9375 360.15625 117.957031 C 360.703125 123.378906 358.320312 128.492188 355.578125 133.015625 C 355.089844 133.824219 349.363281 142.699219 348.582031 142.738281 C 348.566406 142.730469 348.542969 142.722656 348.527344 142.71875 C 347.394531 141.523438 344.75 133.605469 335.398438 121.765625 C 332.761719 118.425781 331.523438 117.042969 330.507812 116.050781 C 329.832031 115.394531 327.746094 113.421875 324.675781 111.285156 C 323.683594 110.589844 321.558594 109.039062 320.988281 110.007812 C 319.820312 111.914062 317.820312 114.613281 314.550781 116.648438 C 309.539062 119.78125 304.417969 119.570312 299.878906 119.460938 C 299.878906 119.460938 284.8125 119.101562 268.476562 120.230469 C 262.546875 120.640625 256.210938 120.960938 250.851562 123.8125 C 243.949219 127.488281 241.550781 135.160156 240.257812 142.335938 C 240.222656 142.5 240.121094 142.644531 239.96875 142.699219 C 239.960938 142.703125 239.957031 142.703125 239.953125 142.703125 C 239.738281 142.773438 239.609375 142.625 239.507812 142.488281 " fill-opacity="1" fill-rule="evenodd"/><path fill="#ebb39e" d="M 330.46875 247.972656 L 316.648438 260.285156 L 279.890625 260.285156 L 267.351562 248.519531 L 267.378906 248.496094 C 269.753906 243.707031 272.371094 231.175781 272.484375 226.824219 C 272.59375 222.632812 271.855469 219.832031 271.078125 216.863281 C 279.535156 223.003906 287.507812 224.867188 289.308594 225.261719 C 299.464844 227.503906 307.546875 225.761719 309.640625 225.261719 C 317.382812 223.4375 322.644531 219.957031 325.195312 218.210938 C 324.574219 220.605469 324.070312 223.308594 324.15625 226.824219 C 324.375 235.128906 327.480469 242.652344 330.46875 247.972656 " fill-opacity="1" fill-rule="evenodd"/><path fill="#f4baa6" d="M 271.078125 216.863281 C 270.292969 216.292969 269.503906 215.6875 268.71875 215.042969 C 266.347656 213.101562 257.515625 205.523438 252.757812 192.300781 C 251.21875 188.015625 250.285156 182.914062 249.925781 180.285156 C 236.121094 176.28125 227.136719 155.867188 242.210938 142.71875 L 242.199219 142.703125 C 242.210938 142.703125 242.210938 142.703125 242.214844 142.699219 C 242.367188 142.644531 242.46875 142.5 242.503906 142.335938 C 243.796875 135.160156 246.199219 127.488281 253.101562 123.816406 C 258.457031 120.960938 264.792969 120.640625 270.730469 120.230469 C 287.0625 119.101562 302.125 119.460938 302.125 119.460938 C 306.664062 119.574219 311.785156 119.78125 316.800781 116.652344 C 320.066406 114.617188 322.070312 111.917969 323.234375 110.007812 C 323.808594 109.042969 325.925781 110.59375 326.921875 111.285156 C 329.996094 113.421875 332.078125 115.394531 332.753906 116.054688 C 333.769531 117.042969 335.011719 118.429688 337.644531 121.765625 C 347 133.605469 349.640625 141.523438 350.773438 142.71875 C 350.789062 142.734375 350.808594 142.738281 350.828125 142.738281 C 368.261719 148.402344 362.359375 177.675781 348.875 179.945312 C 347.382812 186.953125 343.96875 198.796875 335.636719 208.65625 C 330.96875 214.171875 326.46875 217.339844 325.339844 218.109375 C 325.292969 218.144531 325.242188 218.175781 325.195312 218.210938 C 322.644531 219.957031 317.382812 223.4375 309.640625 225.265625 C 307.546875 225.761719 299.464844 227.503906 289.308594 225.265625 C 287.507812 224.867188 279.535156 223.003906 271.078125 216.863281 " fill-opacity="1" fill-rule="evenodd"/><path fill="#6a8899" d="M 396.304688 355.695312 L 396.304688 358.574219 C 396.304688 369.4375 387.496094 378.238281 376.628906 378.238281 L 221.34375 378.238281 C 210.480469 378.238281 201.667969 369.4375 201.667969 358.574219 L 201.667969 355.695312 L 396.304688 355.695312 " fill-opacity="1" fill-rule="evenodd"/><path fill="#6a8899" d="M 382.941406 270.480469 L 382.941406 355.695312 L 215.035156 355.695312 L 215.035156 270.480469 C 215.035156 264.851562 219.601562 260.285156 225.234375 260.285156 L 372.738281 260.285156 C 378.371094 260.285156 382.941406 264.851562 382.941406 270.480469 " fill-opacity="1" fill-rule="evenodd"/><path fill="#f7e07f" d="M 201.667969 358.574219 C 201.667969 369.4375 210.480469 378.238281 221.34375 378.238281 L 169.527344 378.238281 C 169.496094 367.777344 169.589844 317.042969 179.265625 285.890625 C 181.640625 278.234375 184.390625 272.421875 187.917969 267.09375 C 189.894531 264.105469 198.5625 251.53125 215.496094 242.933594 C 231.226562 234.941406 245.808594 234.589844 252.804688 234.875 L 267.351562 248.519531 L 279.890625 260.285156 L 225.234375 260.285156 C 219.601562 260.285156 215.035156 264.851562 215.035156 270.480469 L 215.035156 355.695312 L 201.667969 355.695312 L 201.667969 358.574219 " fill-opacity="1" fill-rule="evenodd"/><path fill="#f7e07f" d="M 418.707031 285.890625 C 428.382812 317.042969 428.472656 367.777344 428.441406 378.238281 L 376.628906 378.238281 C 387.496094 378.238281 396.304688 369.4375 396.304688 358.574219 L 396.304688 355.695312 L 382.941406 355.695312 L 382.941406 270.480469 C 382.941406 264.851562 378.371094 260.285156 372.738281 260.285156 L 316.648438 260.285156 L 330.46875 247.972656 L 345.164062 234.875 C 352.164062 234.589844 366.746094 234.941406 382.480469 242.933594 C 399.410156 251.53125 408.078125 264.105469 410.054688 267.09375 C 413.585938 272.421875 416.332031 278.234375 418.707031 285.890625 " fill-opacity="1" fill-rule="evenodd"/><path fill="#333333" d="M 350.835938 148.855469 C 349.144531 148.855469 347.496094 148.160156 346.324219 146.925781 C 345.386719 145.929688 344.8125 144.789062 343.855469 142.898438 C 342.21875 139.632812 339.15625 133.554688 332.84375 125.554688 C 330.230469 122.25 329.199219 121.136719 328.472656 120.433594 C 327.980469 119.945312 326.828125 118.863281 325.167969 117.585938 C 323.636719 119.246094 321.921875 120.667969 320.042969 121.847656 C 313.59375 125.863281 307.078125 125.707031 302.320312 125.59375 L 301.980469 125.585938 C 301.832031 125.582031 286.988281 125.246094 271.148438 126.339844 L 270.386719 126.390625 C 265.261719 126.738281 259.953125 127.097656 255.976562 129.21875 C 252.1875 131.238281 249.957031 135.488281 248.527344 143.429688 C 248.105469 145.761719 246.46875 147.695312 244.246094 148.476562 C 241.539062 149.433594 238.636719 148.53125 236.863281 146.175781 C 233.804688 142.117188 233.210938 136.730469 232.78125 132.792969 L 232.765625 132.660156 C 232.15625 127.109375 230.96875 113.628906 233.167969 108.410156 C 234.347656 105.585938 237.914062 98.238281 245.363281 91.042969 C 259.996094 76.917969 284.085938 71.355469 288.765625 70.386719 C 297.902344 68.488281 306.644531 67.8125 314.738281 68.378906 C 320.441406 68.777344 325.269531 69.484375 329.492188 70.554688 C 335.15625 71.988281 339.601562 74.769531 342.347656 78.609375 C 343.769531 80.585938 344.636719 82.621094 345.402344 84.414062 C 346.113281 86.0625 346.722656 87.488281 347.550781 88.375 C 348.710938 89.609375 350.289062 90.734375 351.957031 91.925781 C 353.816406 93.25 355.921875 94.746094 357.816406 96.675781 C 362.449219 101.398438 367.6875 109.308594 368.496094 117.351562 C 369.25 124.863281 365.992188 131.363281 363.0625 136.1875 C 362.726562 136.742188 361.113281 139.25 359.507812 141.601562 C 356.246094 146.367188 354.671875 148.484375 351.488281 148.828125 C 351.269531 148.84375 351.050781 148.855469 350.835938 148.855469 Z M 355.664062 139.0625 Z M 323.835938 103.582031 C 326.578125 103.582031 328.839844 105.160156 330.277344 106.164062 L 330.414062 106.265625 C 333.648438 108.511719 335.953125 110.625 337.035156 111.683594 C 338.210938 112.832031 339.582031 114.34375 342.449219 117.972656 C 346.636719 123.269531 349.542969 127.8125 351.597656 131.398438 C 352.035156 130.726562 352.390625 130.171875 352.589844 129.847656 C 355.464844 125.101562 356.617188 121.617188 356.304688 118.566406 C 355.914062 114.660156 352.9375 109.179688 349.066406 105.238281 C 347.929688 104.082031 346.4375 103.015625 344.847656 101.886719 C 342.855469 100.46875 340.601562 98.863281 338.609375 96.730469 C 336.300781 94.273438 335.105469 91.46875 334.140625 89.21875 C 333.546875 87.824219 333.03125 86.621094 332.390625 85.722656 C 331.359375 84.292969 329.261719 83.117188 326.484375 82.414062 C 322.972656 81.523438 318.855469 80.921875 313.886719 80.578125 C 306.910156 80.09375 299.292969 80.695312 291.25 82.359375 C 279.925781 84.710938 263.339844 90.695312 253.871094 99.839844 C 248.027344 105.480469 245.277344 111.214844 244.503906 113.019531 C 244.25 113.992188 243.992188 117.417969 244.269531 123.046875 C 245.890625 121.261719 247.847656 119.671875 250.21875 118.410156 C 256.503906 115.0625 263.4375 114.589844 269.558594 114.171875 L 270.300781 114.121094 C 286.730469 112.984375 301.640625 113.324219 302.269531 113.34375 L 302.617188 113.351562 C 306.695312 113.445312 310.222656 113.53125 313.550781 111.453125 C 315.292969 110.371094 316.78125 108.816406 317.992188 106.835938 C 318.957031 105.230469 320.5 104.128906 322.335938 103.734375 C 322.851562 103.625 323.355469 103.582031 323.835938 103.582031 Z M 328.496094 113.132812 Z M 244.523438 112.960938 Z M 244.523438 112.960938 " fill-opacity="1" fill-rule="evenodd"/><path fill="#333333" d="M 299.574219 232.503906 C 296.125 232.503906 292.207031 232.171875 287.988281 231.242188 C 284.226562 230.410156 274.441406 227.632812 264.835938 219.777344 C 260.238281 216.011719 251.796875 207.695312 247 194.367188 C 245.78125 190.980469 244.960938 187.363281 244.464844 184.730469 C 241.238281 183.199219 238.273438 180.96875 235.753906 178.148438 C 232.359375 174.367188 230 169.777344 228.917969 164.894531 C 226.714844 154.933594 230.089844 145.171875 238.183594 138.109375 C 240.726562 135.886719 244.597656 136.148438 246.816406 138.695312 C 249.042969 141.242188 248.78125 145.109375 246.230469 147.328125 C 240.230469 152.566406 240.003906 158.335938 240.871094 162.25 C 242.128906 167.941406 246.554688 172.9375 251.632812 174.410156 C 253.960938 175.089844 255.667969 177.066406 255.992188 179.46875 C 256.367188 182.238281 257.253906 186.710938 258.519531 190.226562 C 262.457031 201.183594 269.675781 207.921875 272.59375 210.3125 C 280.152344 216.496094 287.722656 218.652344 290.625 219.292969 C 298.882812 221.113281 305.6875 219.910156 308.234375 219.3125 C 315.167969 217.679688 319.863281 214.453125 321.867188 213.070312 C 323.316406 212.078125 327.101562 209.269531 330.957031 204.707031 C 336.539062 198.109375 340.660156 189.105469 342.890625 178.671875 C 343.414062 176.214844 345.386719 174.332031 347.859375 173.914062 C 351.816406 173.25 356.855469 166.410156 357.421875 158.59375 C 357.808594 153.199219 355.996094 149.8125 352.035156 148.542969 C 348.820312 147.507812 347.046875 144.0625 348.082031 140.847656 C 349.117188 137.632812 352.566406 135.863281 355.785156 136.898438 C 360.832031 138.515625 364.753906 141.75 367.136719 146.242188 C 369.125 149.992188 369.988281 154.566406 369.632812 159.472656 C 368.90625 169.53125 363.03125 180.753906 354.046875 184.726562 C 351.242188 195.769531 346.628906 205.132812 340.3125 212.605469 C 335.667969 218.09375 331.113281 221.570312 328.808594 223.152344 C 326.460938 224.769531 320.21875 229.058594 311.046875 231.21875 C 308.578125 231.800781 304.570312 232.503906 299.574219 232.503906 " fill-opacity="1" fill-rule="evenodd"/><path fill="#333333" d="M 267.375 252.183594 C 266.460938 252.183594 265.53125 251.980469 264.65625 251.550781 C 261.628906 250.046875 260.386719 246.375 261.890625 243.347656 C 263.484375 240.140625 266.179688 233.714844 266.363281 226.667969 C 266.4375 223.964844 266.082031 222.714844 265.496094 220.644531 C 265.332031 220.058594 265.140625 219.398438 264.953125 218.671875 C 264.113281 215.398438 266.089844 212.0625 269.363281 211.222656 C 272.640625 210.386719 275.976562 212.355469 276.816406 215.625 C 276.960938 216.207031 277.113281 216.742188 277.277344 217.304688 C 277.992188 219.820312 278.726562 222.417969 278.605469 226.988281 C 278.359375 236.382812 274.902344 244.679688 272.863281 248.785156 C 271.792969 250.933594 269.625 252.183594 267.375 252.183594 " fill-opacity="1" fill-rule="evenodd"/><path fill="#333333" d="M 330.476562 254.09375 C 328.332031 254.09375 326.253906 252.964844 325.128906 250.964844 C 322.039062 245.449219 318.296875 236.820312 318.035156 226.988281 C 317.921875 222.417969 318.65625 219.820312 319.363281 217.308594 C 319.429688 217.074219 319.496094 216.835938 319.566406 216.597656 C 320.472656 213.339844 323.847656 211.433594 327.105469 212.339844 C 330.363281 213.242188 332.273438 216.613281 331.363281 219.871094 C 331.292969 220.136719 331.21875 220.390625 331.148438 220.644531 C 330.5625 222.714844 330.207031 223.964844 330.277344 226.671875 C 330.472656 234.003906 333.390625 240.679688 335.8125 244.984375 C 337.464844 247.933594 336.414062 251.660156 333.464844 253.3125 C 332.519531 253.839844 331.488281 254.09375 330.476562 254.09375 " fill-opacity="1" fill-rule="evenodd"/><g clip-path="url(#id1)"><path fill="#333333" d="M 428.441406 384.355469 L 169.527344 384.355469 C 166.15625 384.355469 163.417969 381.628906 163.410156 378.257812 C 163.351562 359.824219 164.210938 313.734375 173.417969 284.074219 C 175.875 276.15625 178.863281 269.6875 182.816406 263.71875 C 186.121094 258.722656 195.652344 246.148438 212.722656 237.480469 C 228.335938 229.546875 243.28125 228.363281 253.058594 228.765625 C 254.527344 228.828125 255.925781 229.410156 257 230.414062 L 284.085938 255.828125 C 286.546875 258.136719 286.671875 262.007812 284.355469 264.472656 C 282.042969 266.933594 278.167969 267.054688 275.703125 264.742188 L 250.316406 240.933594 C 242.046875 240.851562 230.394531 242.226562 218.273438 248.378906 C 203.808594 255.726562 195.796875 266.269531 193.027344 270.464844 C 189.6875 275.507812 187.25 280.820312 185.117188 287.699219 C 177.199219 313.203125 175.847656 353.5 175.675781 372.117188 L 422.304688 372.117188 C 422.128906 353.5 420.78125 313.203125 412.863281 287.699219 C 410.730469 280.820312 408.292969 275.503906 404.953125 270.46875 C 402.179688 266.269531 394.171875 255.726562 379.707031 248.378906 C 367.542969 242.203125 355.847656 240.851562 347.570312 240.933594 L 320.726562 264.847656 C 318.207031 267.09375 314.335938 266.875 312.082031 264.351562 C 309.832031 261.835938 310.054688 257.96875 312.578125 255.714844 L 341.097656 230.308594 C 342.152344 229.367188 343.503906 228.820312 344.914062 228.761719 C 354.699219 228.359375 369.636719 229.542969 385.253906 237.472656 C 402.320312 246.144531 411.859375 258.714844 415.164062 263.71875 C 419.117188 269.683594 422.097656 276.152344 424.558594 284.070312 C 433.769531 313.730469 434.621094 359.816406 434.570312 378.253906 C 434.554688 381.628906 431.816406 384.355469 428.441406 384.355469 " fill-opacity="1" fill-rule="evenodd"/></g><g clip-path="url(#id2)"><path fill="#333333" d="M 488.777344 384.359375 L 109.195312 384.359375 C 105.816406 384.359375 103.074219 381.617188 103.074219 378.238281 C 103.074219 374.863281 105.816406 372.125 109.195312 372.125 L 488.777344 372.125 C 492.15625 372.125 494.902344 374.863281 494.902344 378.238281 C 494.902344 381.617188 492.15625 384.359375 488.777344 384.359375 " fill-opacity="1" fill-rule="evenodd"/></g><g clip-path="url(#id3)"><path fill="#333333" d="M 376.628906 384.359375 L 221.34375 384.359375 C 207.121094 384.359375 195.546875 372.792969 195.546875 358.578125 L 195.546875 355.695312 C 195.546875 352.320312 198.289062 349.582031 201.667969 349.582031 L 396.304688 349.582031 C 399.683594 349.582031 402.429688 352.320312 402.429688 355.695312 L 402.429688 358.578125 C 402.429688 372.792969 390.851562 384.359375 376.628906 384.359375 Z M 208.179688 361.8125 C 209.636719 367.722656 214.984375 372.121094 221.34375 372.121094 L 376.625 372.121094 C 382.984375 372.121094 388.332031 367.722656 389.789062 361.8125 L 208.179688 361.8125 " fill-opacity="1" fill-rule="evenodd"/></g><path fill="#333333" d="M 382.941406 361.8125 L 215.035156 361.8125 C 211.652344 361.8125 208.910156 359.074219 208.910156 355.695312 L 208.910156 270.480469 C 208.910156 261.484375 216.234375 254.167969 225.234375 254.167969 L 372.738281 254.167969 C 381.738281 254.167969 389.0625 261.484375 389.0625 270.480469 L 389.0625 355.695312 C 389.0625 359.074219 386.324219 361.8125 382.941406 361.8125 Z M 221.15625 349.578125 L 376.820312 349.578125 L 376.820312 270.480469 C 376.820312 268.234375 374.988281 266.402344 372.738281 266.402344 L 225.234375 266.402344 C 222.984375 266.402344 221.15625 268.234375 221.15625 270.480469 L 221.15625 349.578125 " fill-opacity="1" fill-rule="evenodd"/><path fill="#333333" d="M 274.8125 331.34375 C 273.519531 331.34375 272.214844 330.933594 271.105469 330.085938 L 248.523438 312.851562 C 247.007812 311.695312 246.117188 309.898438 246.117188 307.988281 C 246.117188 306.085938 247.007812 304.289062 248.523438 303.132812 L 271.105469 285.898438 C 273.789062 283.847656 277.632812 284.359375 279.683594 287.046875 C 281.738281 289.730469 281.226562 293.566406 278.535156 295.621094 L 262.324219 307.988281 L 278.535156 320.359375 C 281.222656 322.414062 281.734375 326.25 279.683594 328.9375 C 278.480469 330.511719 276.65625 331.34375 274.8125 331.34375 " fill-opacity="1" fill-rule="evenodd"/><path fill="#333333" d="M 323.15625 331.34375 C 321.316406 331.34375 319.488281 330.511719 318.289062 328.9375 C 316.238281 326.25 316.75 322.414062 319.441406 320.363281 L 335.644531 307.992188 L 319.441406 295.621094 C 316.753906 293.570312 316.234375 289.730469 318.289062 287.046875 C 320.339844 284.363281 324.179688 283.847656 326.867188 285.898438 L 349.449219 303.132812 C 350.96875 304.289062 351.855469 306.085938 351.855469 307.992188 C 351.855469 309.898438 350.964844 311.699219 349.449219 312.851562 L 326.867188 330.085938 C 325.757812 330.933594 324.449219 331.34375 323.15625 331.34375 " fill-opacity="1" fill-rule="evenodd"/><path fill="#333333" d="M 291.613281 340.496094 C 291.066406 340.496094 290.511719 340.421875 289.960938 340.265625 C 286.707031 339.355469 284.804688 335.980469 285.714844 332.726562 L 300.472656 279.964844 C 301.382812 276.710938 304.757812 274.8125 308.011719 275.71875 C 311.273438 276.628906 313.171875 280.003906 312.261719 283.257812 L 297.503906 336.023438 C 296.75 338.722656 294.292969 340.496094 291.613281 340.496094 " fill-opacity="1" fill-rule="evenodd"/></svg>